<svg width="150" height="43" viewBox="0 0 150 43" fill="none" xmlns="http://www.w3.org/2000/svg">
<g clip-path="url(#clip0_1_37)">
<path d="M42.3549 21.1774C42.3549 27.3264 39.7363 32.8627 35.5494 36.7311C35.547 36.7286 35.5421 36.7286 35.5373 36.7262C26.6821 34.042 28.3403 29.2156 28.3403 29.2156C28.3403 29.2156 31.6154 25.1285 31.4355 22.2983C31.3261 20.6158 31.044 19.8329 30.8301 19.4779C30.7231 19.298 30.4824 19.2494 30.3122 19.3734C29.1403 20.2438 24.4525 23.9784 25.9527 27.2219C25.9527 27.2219 27.9562 30.9711 27.6741 32.1795C27.6741 32.1795 21.6491 28.1239 23.835 21.4376C23.835 21.4376 27.9051 19.0548 27.5428 15.4126C27.1781 11.7704 25.6074 10.6374 25.6074 10.6374C25.6074 10.6374 22.0333 13.3678 22.1014 16.8253C22.1062 17.083 22.1524 17.3383 22.2351 17.5814C22.4685 18.2695 22.9913 20.0079 22.6776 20.9878C22.2886 22.2011 22.8016 25.357 22.8235 25.5005C22.7335 25.3205 19.7843 19.3879 19.9958 18.7023C20.2097 18.0069 20.9902 14.7148 19.7478 12.1983C18.8579 10.3942 17.3042 9.33899 16.497 8.88675C16.215 8.72871 15.86 8.85028 15.7384 9.14934C15.1646 10.5279 13.8954 14.3112 15.9743 16.7912C18.5564 19.8694 21.0121 21.1118 22.4539 27.7155C22.4539 27.7155 20.8905 26.349 19.8475 24.8853C18.8311 23.4581 14.7537 19.0403 9.95413 22.804C9.80338 22.9232 9.85687 23.1615 10.0441 23.2028C10.9388 23.4095 12.9934 24.1243 15.223 26.5289C15.7627 27.1101 16.5627 27.3678 17.3383 27.2024C18.5053 26.952 20.1174 26.6335 20.6134 26.67C21.423 26.7308 28.3841 34.8127 28.3841 34.8127L27.2924 34.7422C27.0225 34.7252 26.7769 34.5866 26.6189 34.3702C26.3296 33.9666 25.7582 33.2979 24.9291 32.8603C24.1486 32.4494 23.2222 32.4154 22.3931 32.7266C20.9829 33.259 18.1941 34.4164 17.5376 35.5129C17.4477 35.6637 17.5352 35.8558 17.7054 35.885C18.3959 35.9992 20.273 36.2667 23.1663 36.3275C23.2028 36.3299 23.2393 36.3275 23.2733 36.325C23.6964 36.2934 26.3831 36.0624 27.1028 35.4473C27.2535 35.3184 27.448 35.2504 27.6474 35.2382C28.6126 35.1726 31.2045 35.2747 34.5258 37.6064C30.8811 40.5703 26.2323 42.35 21.1677 42.35C9.48001 42.3549 0 32.8725 0 21.1774C0 9.48244 9.48001 0 21.1774 0C32.8749 0 42.3549 9.48244 42.3549 21.1774Z" fill="#24BEE0"/>
<path d="M71.743 14.6906V28.4352H69.489V19.0209L65.2973 28.4352H63.7339L59.5203 19.0209V28.4352H57.2664V14.6906H59.7002L64.5266 25.4689L69.3334 14.6906H71.743Z" fill="black"/>
<path d="M84.6199 23.8276H76.2948C76.3605 24.6981 76.6838 25.3959 77.2649 25.9235C77.8461 26.4511 78.556 26.7137 79.3997 26.7137C80.613 26.7137 81.4688 26.2055 81.9697 25.1916H84.4011C84.0704 26.1934 83.4747 27.0152 82.6116 27.6546C81.7484 28.2941 80.6762 28.615 79.3973 28.615C78.3566 28.615 77.423 28.3816 76.5987 27.9124C75.7745 27.4455 75.1278 26.7842 74.6609 25.9356C74.1917 25.0847 73.9583 24.0999 73.9583 22.9791C73.9583 21.8582 74.1868 20.8735 74.6415 20.0225C75.0961 19.1715 75.7356 18.5175 76.5598 18.0555C77.3841 17.5935 78.3299 17.3625 79.3973 17.3625C80.4258 17.3625 81.3424 17.5862 82.1472 18.036C82.952 18.4834 83.5768 19.1132 84.0266 19.9252C84.474 20.7373 84.7001 21.6685 84.7001 22.7238C84.6977 23.1274 84.671 23.497 84.6199 23.8276ZM82.3441 22.0065C82.332 21.175 82.0329 20.5112 81.4542 20.0079C80.8731 19.507 80.1559 19.2566 79.2976 19.2566C78.5195 19.2566 77.8533 19.5046 77.299 19.9982C76.7446 20.4918 76.4164 21.1628 76.3094 22.0065H82.3441Z" fill="black"/>
<path d="M86.8444 20.0298C87.2991 19.1861 87.9191 18.5296 88.7044 18.0628C89.4898 17.5959 90.3626 17.3601 91.3255 17.3601C92.0379 17.3601 92.7405 17.5157 93.4311 17.8245C94.124 18.1357 94.6735 18.5466 95.082 19.0596V13.8005H97.3553V28.4351H95.082V26.7939C94.7124 27.3215 94.2018 27.7567 93.5502 28.0996C92.8986 28.4424 92.1497 28.6126 91.306 28.6126C90.3578 28.6126 89.4898 28.3719 88.7044 27.8905C87.9191 27.409 87.3015 26.738 86.8444 25.8724C86.3897 25.0093 86.1612 24.0294 86.1612 22.9353C86.1612 21.8436 86.3897 20.8735 86.8444 20.0298ZM94.6152 21.0193C94.3064 20.465 93.9003 20.0444 93.3995 19.7526C92.8986 19.4633 92.3588 19.3174 91.7777 19.3174C91.1966 19.3174 90.6568 19.4584 90.156 19.7429C89.6551 20.0273 89.2491 20.4407 88.9403 20.9877C88.6315 21.5348 88.4759 22.184 88.4759 22.9353C88.4759 23.6866 88.6315 24.3455 88.9403 24.912C89.2491 25.4785 89.6575 25.9113 90.1657 26.2079C90.6739 26.5046 91.2112 26.6529 91.7777 26.6529C92.3588 26.6529 92.8986 26.507 93.3995 26.2177C93.9003 25.9283 94.3064 25.5028 94.6152 24.9412C94.9239 24.382 95.0795 23.7255 95.0795 22.9742C95.0795 22.2253 94.9264 21.5713 94.6152 21.0193Z" fill="black"/>
<path d="M102.576 17.5376H100.322V28.4351H102.576V17.5376Z" fill="black"/>
<path d="M105.474 20.0201C105.929 19.1691 106.558 18.515 107.363 18.0531C108.168 17.5911 109.089 17.3601 110.132 17.3601C111.45 17.3601 112.542 17.6738 113.405 18.2986C114.268 18.9259 114.852 19.8182 115.156 20.978H112.722C112.525 20.4383 112.209 20.0152 111.774 19.7113C111.338 19.4073 110.791 19.2566 110.132 19.2566C109.209 19.2566 108.474 19.5824 107.927 20.2364C107.38 20.8881 107.105 21.8023 107.105 22.9766C107.105 24.151 107.378 25.0676 107.927 25.7265C108.474 26.3854 109.209 26.7161 110.132 26.7161C111.438 26.7161 112.301 26.1423 112.724 24.9947H115.158C114.842 26.1034 114.249 26.9811 113.378 27.6352C112.508 28.2868 111.426 28.615 110.135 28.615C109.094 28.615 108.17 28.3816 107.366 27.9124C106.561 27.4455 105.931 26.7842 105.476 25.9356C105.022 25.0846 104.793 24.0999 104.793 22.9791C104.791 21.8558 105.019 20.871 105.474 20.0201Z" fill="black"/>
<path d="M119.664 17.5376H117.41V28.4351H119.664V17.5376Z" fill="black"/>
<path d="M130.432 17.8926C131.11 18.2476 131.64 18.7752 132.025 19.4754C132.406 20.1732 132.598 21.0169 132.598 22.0065V28.4351H130.364V22.3445C130.364 21.3695 130.121 20.6206 129.632 20.1003C129.143 19.58 128.477 19.3198 127.633 19.3198C126.79 19.3198 126.121 19.58 125.625 20.1003C125.132 20.6206 124.884 21.3695 124.884 22.3445V28.4351H122.63V17.5376H124.884V18.7825C125.253 18.3351 125.725 17.985 126.299 17.7345C126.872 17.4841 127.483 17.3577 128.127 17.3577C128.985 17.3601 129.754 17.5376 130.432 17.8926Z" fill="black"/>
<path d="M145.373 23.8276H137.048C137.114 24.6981 137.437 25.3959 138.018 25.9235C138.599 26.4511 139.309 26.7137 140.153 26.7137C141.366 26.7137 142.222 26.2055 142.723 25.1916H145.154C144.824 26.1934 144.228 27.0152 143.365 27.6546C142.502 28.2941 141.429 28.615 140.151 28.615C139.11 28.615 138.176 28.3816 137.352 27.9124C136.528 27.4455 135.881 26.7842 135.414 25.9356C134.945 25.0847 134.711 24.0999 134.711 22.9791C134.711 21.8582 134.94 20.8735 135.395 20.0225C135.849 19.1715 136.489 18.5175 137.313 18.0555C138.137 17.5935 139.083 17.3625 140.151 17.3625C141.179 17.3625 142.096 17.5862 142.9 18.036C143.705 18.4834 144.33 19.1132 144.78 19.9252C145.227 20.7373 145.453 21.6685 145.453 22.7238C145.453 23.1274 145.427 23.497 145.373 23.8276ZM143.1 22.0065C143.088 21.175 142.789 20.5112 142.21 20.0079C141.629 19.507 140.912 19.2566 140.053 19.2566C139.275 19.2566 138.609 19.5046 138.055 19.9982C137.5 20.4918 137.172 21.1628 137.065 22.0065H143.1Z" fill="black"/>
<path d="M147.549 28.158C147.272 27.8808 147.134 27.538 147.134 27.1295C147.134 26.7211 147.272 26.3782 147.549 26.1011C147.827 25.8239 148.169 25.6853 148.578 25.6853C148.974 25.6853 149.31 25.8239 149.587 26.1011C149.864 26.3782 150.003 26.7211 150.003 27.1295C150.003 27.538 149.864 27.8808 149.587 28.158C149.31 28.4352 148.974 28.5738 148.578 28.5738C148.169 28.5738 147.827 28.4352 147.549 28.158Z" fill="#0E97B5"/>
<path d="M118.545 16.1031C119.346 16.1031 119.994 15.4522 119.994 14.6492C119.994 13.8462 119.346 13.1952 118.545 13.1952C117.745 13.1952 117.096 13.8462 117.096 14.6492C117.096 15.4522 117.745 16.1031 118.545 16.1031Z" fill="black"/>
<path d="M101.459 16.1031C102.26 16.1031 102.909 15.4522 102.909 14.6492C102.909 13.8462 102.26 13.1952 101.459 13.1952C100.659 13.1952 100.01 13.8462 100.01 14.6492C100.01 15.4522 100.659 16.1031 101.459 16.1031Z" fill="black"/>
</g>
<defs>
<clipPath id="clip0_1_37">
<rect width="150" height="42.3549" fill="white"/>
</clipPath>
</defs>
</svg>
